<?xml version="1.0" encoding="utf-8"?>
<!-- Generator: Adobe Illustrator 27.7.0, SVG Export Plug-In . SVG Version: 6.00 Build 0)  -->
<svg version="1.1" id="Layer_1" xmlns="http://www.w3.org/2000/svg" xmlns:xlink="http://www.w3.org/1999/xlink" x="0px" y="0px"
	 viewBox="0 0 484.55 500.67" style="enable-background:new 0 0 484.55 500.67;" xml:space="preserve">
<style type="text/css">
	.st0{fill:#003462;}
</style>
<g>
	<g>
		<g>
			<path class="st0" d="M123.31,400.56l8.54-15.77h130.78c17.59,0,31.9-14.31,31.9-31.9v-70.6l15.77-8.22v78.82
				c0,26.29-21.39,47.67-47.67,47.67H123.31z"/>
		</g>
		<g>
			<g>
				<path class="st0" d="M310.31,219.04v19.44l-15.78,8.26v-27.7c0-28.83-23.42-52.22-52.28-52.22c-14.45,0-27.47,5.83-36.96,15.29
					c-9.43,9.46-15.29,22.54-15.29,36.93v82.28l-15.78,8.23v-90.51c0-37.57,30.42-68.02,68.02-68.02c18.79,0,35.83,7.61,48.14,19.92
					C302.67,183.28,310.31,200.26,310.31,219.04z"/>
			</g>
			<g>
				<path class="st0" d="M361.23,219.08v181.49h-15.29V219.08c0-27.66-10.79-53.71-30.38-73.34c-19.56-19.57-45.58-30.35-73.3-30.35
					c-57.17,0-103.69,46.52-103.69,103.69v109.1l-15.26,7.97V219.08c0-65.59,53.35-118.98,118.94-118.98
					c31.78,0,61.68,12.37,84.12,34.85c20.8,20.83,32.94,47.94,34.66,77.03C361.17,214.35,361.23,216.71,361.23,219.08z"/>
			</g>
			<g>
				<path class="st0" d="M310.31,219.04v19.44l-15.78,8.26v-27.7c0-28.83-23.42-52.22-52.28-52.22c-14.45,0-27.47,5.83-36.96,15.29
					c-9.43,9.46-15.29,22.54-15.29,36.93v82.28l-15.78,8.23v-90.51c0-37.57,30.42-68.02,68.02-68.02c18.79,0,35.83,7.61,48.14,19.92
					C302.67,183.28,310.31,200.26,310.31,219.04z"/>
			</g>
		</g>
	</g>
</g>
</svg>
