<?xml version="1.0" encoding="utf-8"?>
<!-- Generator: Adobe Illustrator 27.8.1, SVG Export Plug-In . SVG Version: 6.00 Build 0)  -->
<svg version="1.1" id="Layer_1" xmlns="http://www.w3.org/2000/svg" xmlns:xlink="http://www.w3.org/1999/xlink" x="0px" y="0px"
	 viewBox="0 0 742.43 432.12" style="enable-background:new 0 0 742.43 432.12;" xml:space="preserve">
<style type="text/css">
	.st0{fill:#003462;}
</style>
<g>
	<g>
		<g>
			<path class="st0" d="M140.38,312.46l-16.21-23.12h-13.31v23.12H98.34V243.7h29.93c14.71,0,25.72,9.41,25.72,22.82
				c0,10.41-6.71,18.42-16.62,21.52l17.22,24.42H140.38z M110.85,277.83h16.01c8.51,0,14.41-4.3,14.41-11.31
				s-5.91-11.31-14.41-11.31h-16.01V277.83z"/>
			<path class="st0" d="M165.51,283.14V243.7h12.51v39.04c0,11.41,7.41,19.62,17.82,19.62c10.51,0,17.92-8.21,17.92-19.62V243.7
				h12.41v39.44c0,17.92-12.51,30.53-30.33,30.53C178.12,313.67,165.51,301.05,165.51,283.14z"/>
			<path class="st0" d="M299.93,243.7v68.76h-12.51v-29.33h-34.33v29.33h-12.51V243.7h12.51v28.03h34.33V243.7H299.93z"/>
			<path class="st0" d="M315.05,243.7h33.73c11.91,0,20.32,7.21,20.32,17.22c0,7.01-3.6,11.91-9.71,15.21
				c7.91,3.8,12.61,10.11,12.61,17.62c0,11.01-9.11,18.72-21.92,18.72h-35.03V243.7z M345.78,271.83c6.11,0,10.51-3.6,10.51-8.61
				c0-5.1-4.4-8.71-10.51-8.71h-18.32v17.32H345.78z M347.58,301.65c6.81,0,11.61-4.1,11.61-9.81c0-5.7-4.8-9.81-11.61-9.81h-20.12
				v19.62H347.58z"/>
		</g>
		<circle class="st0" cx="200.43" cy="224.19" r="9.16"/>
		<g>
			<path class="st0" d="M373.62,147.55v56.65c0,5.14-0.88,9.73-2.44,13.78c-6.35,16.46-27.85,20.55-40.33,8.08l-0.01-0.01h6.82
				c8.29,0,22.32-4.6,22.32-21.85v-47.15L373.62,147.55z"/>
		</g>
		<g>
			<path class="st0" d="M338.73,205.4H249.1c-11.44,0-20.76-9.31-20.76-20.76v-27.6l13.64-9.5v37.1c0,3.93,3.19,7.12,7.12,7.12
				h75.99v-20.25c0-5.69-4.63-10.33-10.33-10.33h-56.75v-13.64h56.75c13.21,0,23.96,10.75,23.96,23.96V205.4z"/>
		</g>
		<g>
			<path class="st0" d="M212.16,205.4h-97.93c-11.46,0-20.76-9.29-20.76-20.76v-16.73c0-11.25,9.12-20.37,20.37-20.37h71.48
				c10.08,0,19.46,5.14,24.89,13.64v0H106.39v23.46c0,3.93,3.19,7.12,7.12,7.12h122.92l0,0C231.28,200.23,222.08,205.4,212.16,205.4
				z"/>
		</g>
	</g>
	<g>
		<g>
			<path class="st0" d="M412.14,328.24l7.48-13.81h114.54c15.41,0,27.94-12.53,27.94-27.94v-61.83l13.81-7.2v69.03
				c0,23.02-18.73,41.75-41.75,41.75H412.14z"/>
		</g>
		<g>
			<g>
				<path class="st0" d="M575.91,169.27v17.02l-13.82,7.23v-24.26c0-25.25-20.51-45.73-45.79-45.73c-12.65,0-24.06,5.11-32.37,13.39
					c-8.26,8.28-13.39,19.74-13.39,32.34v72.06l-13.82,7.21v-79.26c0-32.91,26.64-59.57,59.57-59.57c16.45,0,31.38,6.67,42.16,17.45
					C569.21,137.95,575.91,152.82,575.91,169.27z"/>
			</g>
			<g>
				<path class="st0" d="M620.5,169.3v158.95h-13.39V169.3c0-24.23-9.45-47.03-26.61-64.23c-17.13-17.13-39.91-26.58-64.2-26.58
					c-50.07,0-90.81,40.74-90.81,90.81v95.54l-13.36,6.98V169.3c0-57.45,46.72-104.2,104.17-104.2c27.83,0,54.01,10.84,73.67,30.52
					c18.21,18.24,28.85,41.99,30.35,67.46C620.44,165.16,620.5,167.23,620.5,169.3z"/>
			</g>
			<g>
				<path class="st0" d="M575.91,169.27v17.02l-13.82,7.23v-24.26c0-25.25-20.51-45.73-45.79-45.73c-12.65,0-24.06,5.11-32.37,13.39
					c-8.26,8.28-13.39,19.74-13.39,32.34v72.06l-13.82,7.21v-79.26c0-32.91,26.64-59.57,59.57-59.57c16.45,0,31.38,6.67,42.16,17.45
					C569.21,137.95,575.91,152.82,575.91,169.27z"/>
			</g>
		</g>
	</g>
</g>
</svg>
